<mxfile host="app.diagrams.net" agent="Mozilla/5.0 (Windows NT 10.0; Win64; x64; rv:130.0) Gecko/20100101 Firefox/130.0" version="24.7.16">
  <diagram id="C5RBs43oDa-KdzZeNtuy" name="Page-1">
    <mxGraphModel dx="1050" dy="558" grid="1" gridSize="10" guides="1" tooltips="1" connect="1" arrows="1" fold="1" page="1" pageScale="1" pageWidth="827" pageHeight="1169" math="0" shadow="0">
      <root>
        <object label="" s="" id="WIyWlLk6GJQsqaUBKTNV-0">
          <mxCell />
        </object>
        <mxCell id="WIyWlLk6GJQsqaUBKTNV-1" parent="WIyWlLk6GJQsqaUBKTNV-0" />
        <mxCell id="zAgWju7AAkhC4jvHnDRQ-9" style="edgeStyle=orthogonalEdgeStyle;rounded=0;orthogonalLoop=1;jettySize=auto;html=1;entryX=0;entryY=0.5;entryDx=0;entryDy=0;" parent="WIyWlLk6GJQsqaUBKTNV-1" source="zAgWju7AAkhC4jvHnDRQ-13" target="zAgWju7AAkhC4jvHnDRQ-28" edge="1">
          <mxGeometry relative="1" as="geometry">
            <Array as="points">
              <mxPoint x="380" y="300" />
              <mxPoint x="380" y="410" />
            </Array>
          </mxGeometry>
        </mxCell>
        <mxCell id="zAgWju7AAkhC4jvHnDRQ-10" style="edgeStyle=orthogonalEdgeStyle;rounded=0;orthogonalLoop=1;jettySize=auto;html=1;entryX=1;entryY=0.5;entryDx=0;entryDy=0;" parent="WIyWlLk6GJQsqaUBKTNV-1" source="zAgWju7AAkhC4jvHnDRQ-13" target="zAgWju7AAkhC4jvHnDRQ-28" edge="1">
          <mxGeometry relative="1" as="geometry">
            <mxPoint x="610" y="430" as="targetPoint" />
            <Array as="points">
              <mxPoint x="600" y="300" />
              <mxPoint x="600" y="301" />
              <mxPoint x="610" y="301" />
              <mxPoint x="610" y="410" />
            </Array>
          </mxGeometry>
        </mxCell>
        <mxCell id="zAgWju7AAkhC4jvHnDRQ-11" style="edgeStyle=orthogonalEdgeStyle;rounded=0;orthogonalLoop=1;jettySize=auto;html=1;entryX=0;entryY=0.5;entryDx=0;entryDy=0;" parent="WIyWlLk6GJQsqaUBKTNV-1" source="zAgWju7AAkhC4jvHnDRQ-13" target="zAgWju7AAkhC4jvHnDRQ-44" edge="1">
          <mxGeometry relative="1" as="geometry">
            <Array as="points">
              <mxPoint x="860" y="290" />
              <mxPoint x="860" y="410" />
            </Array>
          </mxGeometry>
        </mxCell>
        <mxCell id="zAgWju7AAkhC4jvHnDRQ-12" style="edgeStyle=orthogonalEdgeStyle;rounded=0;orthogonalLoop=1;jettySize=auto;html=1;entryX=0.5;entryY=0;entryDx=0;entryDy=0;" parent="WIyWlLk6GJQsqaUBKTNV-1" source="zAgWju7AAkhC4jvHnDRQ-13" target="zAgWju7AAkhC4jvHnDRQ-59" edge="1">
          <mxGeometry relative="1" as="geometry" />
        </mxCell>
        <mxCell id="zAgWju7AAkhC4jvHnDRQ-13" value="Employee" style="rounded=0;whiteSpace=wrap;html=1;fillColor=#d5e8d4;strokeColor=#82b366;gradientColor=#97d077;" parent="WIyWlLk6GJQsqaUBKTNV-1" vertex="1">
          <mxGeometry x="424" y="260" width="120" height="60" as="geometry" />
        </mxCell>
        <mxCell id="zAgWju7AAkhC4jvHnDRQ-14" value="" style="edgeStyle=orthogonalEdgeStyle;rounded=0;orthogonalLoop=1;jettySize=auto;html=1;" parent="WIyWlLk6GJQsqaUBKTNV-1" source="zAgWju7AAkhC4jvHnDRQ-15" target="zAgWju7AAkhC4jvHnDRQ-13" edge="1">
          <mxGeometry relative="1" as="geometry" />
        </mxCell>
        <mxCell id="zAgWju7AAkhC4jvHnDRQ-15" value="ID&lt;div&gt;------&lt;/div&gt;" style="ellipse;whiteSpace=wrap;html=1;fillColor=#1ba1e2;fontColor=#ffffff;strokeColor=#006EAF;" parent="WIyWlLk6GJQsqaUBKTNV-1" vertex="1">
          <mxGeometry x="480" y="10" width="110" height="40" as="geometry" />
        </mxCell>
        <mxCell id="zAgWju7AAkhC4jvHnDRQ-16" style="edgeStyle=orthogonalEdgeStyle;rounded=0;orthogonalLoop=1;jettySize=auto;html=1;" parent="WIyWlLk6GJQsqaUBKTNV-1" source="zAgWju7AAkhC4jvHnDRQ-17" target="zAgWju7AAkhC4jvHnDRQ-13" edge="1">
          <mxGeometry relative="1" as="geometry">
            <Array as="points">
              <mxPoint x="560" y="65" />
              <mxPoint x="560" y="240" />
              <mxPoint x="510" y="240" />
            </Array>
          </mxGeometry>
        </mxCell>
        <mxCell id="zAgWju7AAkhC4jvHnDRQ-17" value="Name" style="ellipse;whiteSpace=wrap;html=1;fillColor=#1ba1e2;fontColor=#ffffff;strokeColor=#006EAF;" parent="WIyWlLk6GJQsqaUBKTNV-1" vertex="1">
          <mxGeometry x="610" y="40" width="110" height="50" as="geometry" />
        </mxCell>
        <mxCell id="zAgWju7AAkhC4jvHnDRQ-18" value="" style="edgeStyle=orthogonalEdgeStyle;rounded=0;orthogonalLoop=1;jettySize=auto;html=1;entryX=0.25;entryY=0;entryDx=0;entryDy=0;" parent="WIyWlLk6GJQsqaUBKTNV-1" source="zAgWju7AAkhC4jvHnDRQ-19" target="zAgWju7AAkhC4jvHnDRQ-13" edge="1">
          <mxGeometry relative="1" as="geometry" />
        </mxCell>
        <mxCell id="zAgWju7AAkhC4jvHnDRQ-19" value="Position" style="ellipse;whiteSpace=wrap;html=1;fillColor=#1ba1e2;strokeColor=#006EAF;fontColor=#ffffff;" parent="WIyWlLk6GJQsqaUBKTNV-1" vertex="1">
          <mxGeometry x="370" y="10" width="100" height="50" as="geometry" />
        </mxCell>
        <mxCell id="zAgWju7AAkhC4jvHnDRQ-20" style="edgeStyle=orthogonalEdgeStyle;rounded=0;orthogonalLoop=1;jettySize=auto;html=1;entryX=0.5;entryY=1;entryDx=0;entryDy=0;" parent="WIyWlLk6GJQsqaUBKTNV-1" source="zAgWju7AAkhC4jvHnDRQ-22" target="zAgWju7AAkhC4jvHnDRQ-27" edge="1">
          <mxGeometry relative="1" as="geometry" />
        </mxCell>
        <mxCell id="zAgWju7AAkhC4jvHnDRQ-21" style="edgeStyle=orthogonalEdgeStyle;rounded=0;orthogonalLoop=1;jettySize=auto;html=1;entryX=0.5;entryY=1;entryDx=0;entryDy=0;" parent="WIyWlLk6GJQsqaUBKTNV-1" source="zAgWju7AAkhC4jvHnDRQ-22" target="zAgWju7AAkhC4jvHnDRQ-28" edge="1">
          <mxGeometry relative="1" as="geometry">
            <Array as="points">
              <mxPoint x="287" y="460" />
              <mxPoint x="287" y="470" />
              <mxPoint x="484" y="470" />
            </Array>
          </mxGeometry>
        </mxCell>
        <mxCell id="zAgWju7AAkhC4jvHnDRQ-22" value="Department" style="rounded=0;whiteSpace=wrap;html=1;fillColor=#d5e8d4;strokeColor=#82b366;gradientColor=#97d077;" parent="WIyWlLk6GJQsqaUBKTNV-1" vertex="1">
          <mxGeometry x="30" y="410" width="120" height="60" as="geometry" />
        </mxCell>
        <mxCell id="zAgWju7AAkhC4jvHnDRQ-23" value="" style="edgeStyle=orthogonalEdgeStyle;rounded=0;orthogonalLoop=1;jettySize=auto;html=1;" parent="WIyWlLk6GJQsqaUBKTNV-1" source="zAgWju7AAkhC4jvHnDRQ-24" target="zAgWju7AAkhC4jvHnDRQ-22" edge="1">
          <mxGeometry relative="1" as="geometry" />
        </mxCell>
        <mxCell id="zAgWju7AAkhC4jvHnDRQ-24" value="Name&lt;div&gt;---------&lt;/div&gt;" style="ellipse;whiteSpace=wrap;html=1;fillColor=#1ba1e2;fontColor=#ffffff;strokeColor=#006EAF;" parent="WIyWlLk6GJQsqaUBKTNV-1" vertex="1">
          <mxGeometry x="120" y="595" width="110" height="50" as="geometry" />
        </mxCell>
        <mxCell id="zAgWju7AAkhC4jvHnDRQ-25" style="edgeStyle=orthogonalEdgeStyle;rounded=0;orthogonalLoop=1;jettySize=auto;html=1;" parent="WIyWlLk6GJQsqaUBKTNV-1" source="zAgWju7AAkhC4jvHnDRQ-27" target="zAgWju7AAkhC4jvHnDRQ-22" edge="1">
          <mxGeometry relative="1" as="geometry">
            <Array as="points">
              <mxPoint x="230" y="440" />
            </Array>
          </mxGeometry>
        </mxCell>
        <mxCell id="zAgWju7AAkhC4jvHnDRQ-26" style="edgeStyle=orthogonalEdgeStyle;rounded=0;orthogonalLoop=1;jettySize=auto;html=1;" parent="WIyWlLk6GJQsqaUBKTNV-1" source="zAgWju7AAkhC4jvHnDRQ-27" target="zAgWju7AAkhC4jvHnDRQ-13" edge="1">
          <mxGeometry relative="1" as="geometry">
            <Array as="points">
              <mxPoint x="230" y="230" />
              <mxPoint x="380" y="230" />
              <mxPoint x="380" y="270" />
            </Array>
          </mxGeometry>
        </mxCell>
        <mxCell id="zAgWju7AAkhC4jvHnDRQ-27" value="Assigned" style="rhombus;whiteSpace=wrap;html=1;fillColor=#f8cecc;strokeColor=#b85450;gradientColor=#ea6b66;" parent="WIyWlLk6GJQsqaUBKTNV-1" vertex="1">
          <mxGeometry x="160" y="260" width="140" height="80" as="geometry" />
        </mxCell>
        <mxCell id="zAgWju7AAkhC4jvHnDRQ-28" value="Manager" style="rhombus;whiteSpace=wrap;html=1;fillColor=#f8cecc;strokeColor=#b85450;gradientColor=#ea6b66;" parent="WIyWlLk6GJQsqaUBKTNV-1" vertex="1">
          <mxGeometry x="424" y="370" width="120" height="80" as="geometry" />
        </mxCell>
        <mxCell id="zAgWju7AAkhC4jvHnDRQ-29" value="Meeting Room" style="rounded=0;whiteSpace=wrap;html=1;fillColor=#d5e8d4;strokeColor=#82b366;gradientColor=#97d077;" parent="WIyWlLk6GJQsqaUBKTNV-1" vertex="1">
          <mxGeometry x="715" y="700" width="120" height="60" as="geometry" />
        </mxCell>
        <mxCell id="zAgWju7AAkhC4jvHnDRQ-30" style="edgeStyle=orthogonalEdgeStyle;rounded=0;orthogonalLoop=1;jettySize=auto;html=1;entryX=0.75;entryY=1;entryDx=0;entryDy=0;exitX=0.5;exitY=0;exitDx=0;exitDy=0;" parent="WIyWlLk6GJQsqaUBKTNV-1" source="zAgWju7AAkhC4jvHnDRQ-31" target="zAgWju7AAkhC4jvHnDRQ-29" edge="1">
          <mxGeometry relative="1" as="geometry" />
        </mxCell>
        <mxCell id="zAgWju7AAkhC4jvHnDRQ-31" value="Room Number&lt;div&gt;---------------------&lt;/div&gt;" style="ellipse;whiteSpace=wrap;html=1;fillColor=#1ba1e2;fontColor=#ffffff;strokeColor=#006EAF;" parent="WIyWlLk6GJQsqaUBKTNV-1" vertex="1">
          <mxGeometry x="835" y="920" width="110" height="50" as="geometry" />
        </mxCell>
        <mxCell id="zAgWju7AAkhC4jvHnDRQ-32" style="edgeStyle=orthogonalEdgeStyle;rounded=0;orthogonalLoop=1;jettySize=auto;html=1;" parent="WIyWlLk6GJQsqaUBKTNV-1" source="zAgWju7AAkhC4jvHnDRQ-33" target="zAgWju7AAkhC4jvHnDRQ-29" edge="1">
          <mxGeometry relative="1" as="geometry" />
        </mxCell>
        <mxCell id="zAgWju7AAkhC4jvHnDRQ-33" value="Size" style="ellipse;whiteSpace=wrap;html=1;fillColor=#1ba1e2;fontColor=#ffffff;strokeColor=#006EAF;" parent="WIyWlLk6GJQsqaUBKTNV-1" vertex="1">
          <mxGeometry x="715" y="930" width="100" height="50" as="geometry" />
        </mxCell>
        <mxCell id="zAgWju7AAkhC4jvHnDRQ-34" style="edgeStyle=orthogonalEdgeStyle;rounded=0;orthogonalLoop=1;jettySize=auto;html=1;entryX=0.25;entryY=1;entryDx=0;entryDy=0;" parent="WIyWlLk6GJQsqaUBKTNV-1" source="zAgWju7AAkhC4jvHnDRQ-35" target="zAgWju7AAkhC4jvHnDRQ-29" edge="1">
          <mxGeometry relative="1" as="geometry">
            <mxPoint x="570" y="820" as="targetPoint" />
            <Array as="points">
              <mxPoint x="640" y="870" />
              <mxPoint x="745" y="870" />
            </Array>
          </mxGeometry>
        </mxCell>
        <mxCell id="zAgWju7AAkhC4jvHnDRQ-35" value="Maximum Occupancy" style="ellipse;whiteSpace=wrap;html=1;fillColor=#1ba1e2;fontColor=#ffffff;strokeColor=#006EAF;" parent="WIyWlLk6GJQsqaUBKTNV-1" vertex="1">
          <mxGeometry x="585" y="930" width="110" height="50" as="geometry" />
        </mxCell>
        <mxCell id="zAgWju7AAkhC4jvHnDRQ-36" style="edgeStyle=orthogonalEdgeStyle;rounded=0;orthogonalLoop=1;jettySize=auto;html=1;entryX=0.5;entryY=0;entryDx=0;entryDy=0;" parent="WIyWlLk6GJQsqaUBKTNV-1" source="zAgWju7AAkhC4jvHnDRQ-37" target="zAgWju7AAkhC4jvHnDRQ-29" edge="1">
          <mxGeometry relative="1" as="geometry" />
        </mxCell>
        <mxCell id="zAgWju7AAkhC4jvHnDRQ-37" value="Combined" style="rhombus;whiteSpace=wrap;html=1;fillColor=#f8cecc;strokeColor=#b85450;gradientColor=#ea6b66;" parent="WIyWlLk6GJQsqaUBKTNV-1" vertex="1">
          <mxGeometry x="705" y="554" width="140" height="80" as="geometry" />
        </mxCell>
        <mxCell id="zAgWju7AAkhC4jvHnDRQ-38" style="edgeStyle=orthogonalEdgeStyle;rounded=0;orthogonalLoop=1;jettySize=auto;html=1;" parent="WIyWlLk6GJQsqaUBKTNV-1" source="zAgWju7AAkhC4jvHnDRQ-37" target="zAgWju7AAkhC4jvHnDRQ-29" edge="1">
          <mxGeometry relative="1" as="geometry">
            <Array as="points">
              <mxPoint x="665" y="595" />
              <mxPoint x="665" y="730" />
            </Array>
          </mxGeometry>
        </mxCell>
        <mxCell id="zAgWju7AAkhC4jvHnDRQ-39" style="edgeStyle=orthogonalEdgeStyle;rounded=0;orthogonalLoop=1;jettySize=auto;html=1;entryX=1;entryY=0.5;entryDx=0;entryDy=0;" parent="WIyWlLk6GJQsqaUBKTNV-1" source="zAgWju7AAkhC4jvHnDRQ-40" target="zAgWju7AAkhC4jvHnDRQ-50" edge="1">
          <mxGeometry relative="1" as="geometry" />
        </mxCell>
        <mxCell id="zAgWju7AAkhC4jvHnDRQ-40" value="Building" style="rounded=0;whiteSpace=wrap;html=1;fillColor=#d5e8d4;strokeColor=#82b366;gradientColor=#97d077;" parent="WIyWlLk6GJQsqaUBKTNV-1" vertex="1">
          <mxGeometry x="1290" y="610" width="120" height="60" as="geometry" />
        </mxCell>
        <mxCell id="zAgWju7AAkhC4jvHnDRQ-41" style="edgeStyle=orthogonalEdgeStyle;rounded=0;orthogonalLoop=1;jettySize=auto;html=1;entryX=1;entryY=0.5;entryDx=0;entryDy=0;exitX=0.5;exitY=1;exitDx=0;exitDy=0;" parent="WIyWlLk6GJQsqaUBKTNV-1" source="zAgWju7AAkhC4jvHnDRQ-44" target="zAgWju7AAkhC4jvHnDRQ-29" edge="1">
          <mxGeometry relative="1" as="geometry" />
        </mxCell>
        <mxCell id="zAgWju7AAkhC4jvHnDRQ-42" style="edgeStyle=orthogonalEdgeStyle;rounded=0;orthogonalLoop=1;jettySize=auto;html=1;entryX=0.5;entryY=1;entryDx=0;entryDy=0;" parent="WIyWlLk6GJQsqaUBKTNV-1" source="zAgWju7AAkhC4jvHnDRQ-44" target="zAgWju7AAkhC4jvHnDRQ-46" edge="1">
          <mxGeometry relative="1" as="geometry">
            <Array as="points">
              <mxPoint x="1015" y="150" />
            </Array>
          </mxGeometry>
        </mxCell>
        <mxCell id="zAgWju7AAkhC4jvHnDRQ-43" style="edgeStyle=orthogonalEdgeStyle;rounded=0;orthogonalLoop=1;jettySize=auto;html=1;" parent="WIyWlLk6GJQsqaUBKTNV-1" source="zAgWju7AAkhC4jvHnDRQ-44" target="zAgWju7AAkhC4jvHnDRQ-47" edge="1">
          <mxGeometry relative="1" as="geometry">
            <Array as="points">
              <mxPoint x="1015" y="300" />
              <mxPoint x="1305" y="300" />
            </Array>
          </mxGeometry>
        </mxCell>
        <mxCell id="zAgWju7AAkhC4jvHnDRQ-44" value="Reservation" style="rhombus;whiteSpace=wrap;html=1;fillColor=#f8cecc;strokeColor=#b85450;gradientColor=#ea6b66;" parent="WIyWlLk6GJQsqaUBKTNV-1" vertex="1">
          <mxGeometry x="945" y="370" width="140" height="80" as="geometry" />
        </mxCell>
        <mxCell id="zAgWju7AAkhC4jvHnDRQ-45" value="Reservation ID&lt;div&gt;--------------------&lt;/div&gt;" style="ellipse;whiteSpace=wrap;html=1;fillColor=#1ba1e2;fontColor=#ffffff;strokeColor=#006EAF;" parent="WIyWlLk6GJQsqaUBKTNV-1" vertex="1">
          <mxGeometry x="870" y="90" width="105" height="50" as="geometry" />
        </mxCell>
        <mxCell id="zAgWju7AAkhC4jvHnDRQ-46" value="Date" style="ellipse;whiteSpace=wrap;html=1;fillColor=#1ba1e2;fontColor=#ffffff;strokeColor=#006EAF;" parent="WIyWlLk6GJQsqaUBKTNV-1" vertex="1">
          <mxGeometry x="1130" y="100" width="112" height="50" as="geometry" />
        </mxCell>
        <mxCell id="zAgWju7AAkhC4jvHnDRQ-47" value="Number of people" style="ellipse;whiteSpace=wrap;html=1;fillColor=#1ba1e2;fontColor=#ffffff;strokeColor=#006EAF;" parent="WIyWlLk6GJQsqaUBKTNV-1" vertex="1">
          <mxGeometry x="1280" y="200" width="110" height="50" as="geometry" />
        </mxCell>
        <mxCell id="zAgWju7AAkhC4jvHnDRQ-48" style="edgeStyle=orthogonalEdgeStyle;rounded=0;orthogonalLoop=1;jettySize=auto;html=1;entryX=0.575;entryY=0.992;entryDx=0;entryDy=0;entryPerimeter=0;" parent="WIyWlLk6GJQsqaUBKTNV-1" source="zAgWju7AAkhC4jvHnDRQ-44" target="zAgWju7AAkhC4jvHnDRQ-45" edge="1">
          <mxGeometry relative="1" as="geometry" />
        </mxCell>
        <mxCell id="zAgWju7AAkhC4jvHnDRQ-49" style="edgeStyle=orthogonalEdgeStyle;rounded=0;orthogonalLoop=1;jettySize=auto;html=1;entryX=1;entryY=0.75;entryDx=0;entryDy=0;" parent="WIyWlLk6GJQsqaUBKTNV-1" source="zAgWju7AAkhC4jvHnDRQ-50" target="zAgWju7AAkhC4jvHnDRQ-29" edge="1">
          <mxGeometry relative="1" as="geometry" />
        </mxCell>
        <mxCell id="zAgWju7AAkhC4jvHnDRQ-50" value="Distributed" style="rhombus;whiteSpace=wrap;html=1;fillColor=#d5e8d4;strokeColor=#82b366;" parent="WIyWlLk6GJQsqaUBKTNV-1" vertex="1">
          <mxGeometry x="1060" y="770" width="100" height="70" as="geometry" />
        </mxCell>
        <mxCell id="zAgWju7AAkhC4jvHnDRQ-51" value="Parking Space" style="rounded=0;whiteSpace=wrap;html=1;fillColor=#d5e8d4;strokeColor=#82b366;gradientColor=#97d077;" parent="WIyWlLk6GJQsqaUBKTNV-1" vertex="1">
          <mxGeometry x="240" y="720" width="120" height="60" as="geometry" />
        </mxCell>
        <mxCell id="zAgWju7AAkhC4jvHnDRQ-52" style="edgeStyle=orthogonalEdgeStyle;rounded=0;orthogonalLoop=1;jettySize=auto;html=1;entryX=0.75;entryY=1;entryDx=0;entryDy=0;" parent="WIyWlLk6GJQsqaUBKTNV-1" source="zAgWju7AAkhC4jvHnDRQ-53" target="zAgWju7AAkhC4jvHnDRQ-51" edge="1">
          <mxGeometry relative="1" as="geometry" />
        </mxCell>
        <mxCell id="zAgWju7AAkhC4jvHnDRQ-53" value="Parking Space ID&lt;div&gt;-------------------------&lt;/div&gt;" style="ellipse;whiteSpace=wrap;html=1;fillColor=#1ba1e2;fontColor=#ffffff;strokeColor=#006EAF;" parent="WIyWlLk6GJQsqaUBKTNV-1" vertex="1">
          <mxGeometry x="240" y="915" width="110" height="60" as="geometry" />
        </mxCell>
        <mxCell id="zAgWju7AAkhC4jvHnDRQ-54" style="edgeStyle=orthogonalEdgeStyle;rounded=0;orthogonalLoop=1;jettySize=auto;html=1;entryX=0.25;entryY=1;entryDx=0;entryDy=0;" parent="WIyWlLk6GJQsqaUBKTNV-1" source="zAgWju7AAkhC4jvHnDRQ-55" target="zAgWju7AAkhC4jvHnDRQ-51" edge="1">
          <mxGeometry relative="1" as="geometry" />
        </mxCell>
        <mxCell id="zAgWju7AAkhC4jvHnDRQ-55" value="License Plate Number" style="ellipse;whiteSpace=wrap;html=1;fillColor=#1ba1e2;fontColor=#ffffff;strokeColor=#006EAF;" parent="WIyWlLk6GJQsqaUBKTNV-1" vertex="1">
          <mxGeometry x="110" y="820" width="100" height="50" as="geometry" />
        </mxCell>
        <mxCell id="zAgWju7AAkhC4jvHnDRQ-56" style="edgeStyle=orthogonalEdgeStyle;rounded=0;orthogonalLoop=1;jettySize=auto;html=1;entryX=1;entryY=0.5;entryDx=0;entryDy=0;" parent="WIyWlLk6GJQsqaUBKTNV-1" source="zAgWju7AAkhC4jvHnDRQ-57" target="zAgWju7AAkhC4jvHnDRQ-44" edge="1">
          <mxGeometry relative="1" as="geometry" />
        </mxCell>
        <mxCell id="zAgWju7AAkhC4jvHnDRQ-57" value="Timeslot" style="ellipse;whiteSpace=wrap;html=1;fillColor=#1ba1e2;fontColor=#ffffff;strokeColor=#006EAF;" parent="WIyWlLk6GJQsqaUBKTNV-1" vertex="1">
          <mxGeometry x="1230" y="340" width="110" height="60" as="geometry" />
        </mxCell>
        <mxCell id="zAgWju7AAkhC4jvHnDRQ-58" style="edgeStyle=orthogonalEdgeStyle;rounded=0;orthogonalLoop=1;jettySize=auto;html=1;entryX=0.5;entryY=0;entryDx=0;entryDy=0;" parent="WIyWlLk6GJQsqaUBKTNV-1" source="zAgWju7AAkhC4jvHnDRQ-59" target="zAgWju7AAkhC4jvHnDRQ-51" edge="1">
          <mxGeometry relative="1" as="geometry" />
        </mxCell>
        <mxCell id="zAgWju7AAkhC4jvHnDRQ-59" value="Assigned" style="rhombus;whiteSpace=wrap;html=1;fillColor=#f8cecc;strokeColor=#b85450;gradientColor=#ea6b66;" parent="WIyWlLk6GJQsqaUBKTNV-1" vertex="1">
          <mxGeometry x="270" y="560" width="130" height="80" as="geometry" />
        </mxCell>
        <mxCell id="zAgWju7AAkhC4jvHnDRQ-60" value="&lt;b style=&quot;font-size: 25px;&quot;&gt;&lt;font color=&quot;#ff0000&quot; style=&quot;font-size: 25px;&quot;&gt;1&lt;/font&gt;&lt;/b&gt;" style="text;html=1;align=center;verticalAlign=middle;resizable=0;points=[];autosize=1;strokeColor=none;fillColor=none;fontSize=25;" parent="WIyWlLk6GJQsqaUBKTNV-1" vertex="1">
          <mxGeometry x="190" y="220" width="40" height="40" as="geometry" />
        </mxCell>
        <mxCell id="zAgWju7AAkhC4jvHnDRQ-61" value="&lt;font color=&quot;#ff0008&quot; style=&quot;font-size: 25px;&quot;&gt;N&lt;/font&gt;" style="text;html=1;align=center;verticalAlign=middle;whiteSpace=wrap;rounded=0;" parent="WIyWlLk6GJQsqaUBKTNV-1" vertex="1">
          <mxGeometry x="180" y="350" width="60" height="30" as="geometry" />
        </mxCell>
        <mxCell id="zAgWju7AAkhC4jvHnDRQ-62" value="&lt;font color=&quot;#ff0000&quot; style=&quot;font-size: 25px;&quot;&gt;1&lt;/font&gt;" style="text;html=1;align=center;verticalAlign=middle;resizable=0;points=[];autosize=1;strokeColor=none;fillColor=none;" parent="WIyWlLk6GJQsqaUBKTNV-1" vertex="1">
          <mxGeometry x="340" y="520" width="40" height="40" as="geometry" />
        </mxCell>
        <mxCell id="zAgWju7AAkhC4jvHnDRQ-63" value="&lt;font color=&quot;#ff0000&quot; style=&quot;font-size: 25px;&quot;&gt;N&lt;/font&gt;" style="text;html=1;align=center;verticalAlign=middle;resizable=0;points=[];autosize=1;strokeColor=none;fillColor=none;" parent="WIyWlLk6GJQsqaUBKTNV-1" vertex="1">
          <mxGeometry x="1166" y="760" width="40" height="40" as="geometry" />
        </mxCell>
        <mxCell id="zAgWju7AAkhC4jvHnDRQ-64" value="&lt;font color=&quot;#ff0000&quot; style=&quot;font-size: 25px;&quot;&gt;1&lt;/font&gt;" style="text;html=1;align=center;verticalAlign=middle;resizable=0;points=[];autosize=1;strokeColor=none;fillColor=none;" parent="WIyWlLk6GJQsqaUBKTNV-1" vertex="1">
          <mxGeometry x="1020" y="760" width="40" height="40" as="geometry" />
        </mxCell>
        <mxCell id="zAgWju7AAkhC4jvHnDRQ-65" value="&lt;font color=&quot;#ff0000&quot; style=&quot;font-size: 25px;&quot;&gt;1&lt;/font&gt;" style="text;html=1;align=center;verticalAlign=middle;resizable=0;points=[];autosize=1;strokeColor=none;fillColor=none;" parent="WIyWlLk6GJQsqaUBKTNV-1" vertex="1">
          <mxGeometry x="300" y="634" width="40" height="40" as="geometry" />
        </mxCell>
        <mxCell id="zAgWju7AAkhC4jvHnDRQ-66" value="&lt;font color=&quot;#ff0000&quot; style=&quot;font-size: 25px;&quot;&gt;1&lt;/font&gt;" style="text;html=1;align=center;verticalAlign=middle;resizable=0;points=[];autosize=1;strokeColor=none;fillColor=none;" parent="WIyWlLk6GJQsqaUBKTNV-1" vertex="1">
          <mxGeometry x="975" y="443" width="40" height="40" as="geometry" />
        </mxCell>
        <mxCell id="zAgWju7AAkhC4jvHnDRQ-67" value="&lt;font color=&quot;#ff0000&quot; style=&quot;font-size: 25px;&quot;&gt;N&lt;/font&gt;" style="text;html=1;align=center;verticalAlign=middle;resizable=0;points=[];autosize=1;strokeColor=none;fillColor=none;" parent="WIyWlLk6GJQsqaUBKTNV-1" vertex="1">
          <mxGeometry x="905" y="370" width="40" height="40" as="geometry" />
        </mxCell>
        <mxCell id="zAgWju7AAkhC4jvHnDRQ-68" value="&lt;font color=&quot;#ff0000&quot; style=&quot;font-size: 25px;&quot;&gt;1&lt;/font&gt;" style="text;html=1;align=center;verticalAlign=middle;resizable=0;points=[];autosize=1;strokeColor=none;fillColor=none;" parent="WIyWlLk6GJQsqaUBKTNV-1" vertex="1">
          <mxGeometry x="675" y="554" width="40" height="40" as="geometry" />
        </mxCell>
        <mxCell id="zAgWju7AAkhC4jvHnDRQ-69" value="&lt;font color=&quot;#ff0000&quot; style=&quot;font-size: 25px;&quot;&gt;1&lt;/font&gt;" style="text;html=1;align=center;verticalAlign=middle;resizable=0;points=[];autosize=1;strokeColor=none;fillColor=none;" parent="WIyWlLk6GJQsqaUBKTNV-1" vertex="1">
          <mxGeometry x="775" y="630" width="40" height="40" as="geometry" />
        </mxCell>
        <mxCell id="zAgWju7AAkhC4jvHnDRQ-70" value="&lt;font color=&quot;#ff0000&quot; style=&quot;font-size: 25px;&quot;&gt;1&lt;/font&gt;" style="text;html=1;align=center;verticalAlign=middle;resizable=0;points=[];autosize=1;strokeColor=none;fillColor=none;" parent="WIyWlLk6GJQsqaUBKTNV-1" vertex="1">
          <mxGeometry x="450" y="460" width="40" height="40" as="geometry" />
        </mxCell>
        <mxCell id="zAgWju7AAkhC4jvHnDRQ-71" value="&lt;font color=&quot;#ff0000&quot; style=&quot;font-size: 25px;&quot;&gt;1&lt;/font&gt;" style="text;html=1;align=center;verticalAlign=middle;resizable=0;points=[];autosize=1;strokeColor=none;fillColor=none;" parent="WIyWlLk6GJQsqaUBKTNV-1" vertex="1">
          <mxGeometry x="390" y="370" width="40" height="40" as="geometry" />
        </mxCell>
      </root>
    </mxGraphModel>
  </diagram>
</mxfile>
